<svg xmlns="http://www.w3.org/2000/svg" id="Layer_1" version="1.1" viewBox="0 0 360 288"><defs><style>.st0{fill:#381559}</style></defs><path d="M179.64 159c-9.24 2.34-17.84 10.12-17.84 18.79s7.74 12.24 17.84 9.68c1.22-.31 2.48-.72 3.63-1.17l-14.39-5.89 21.71-5.5 4.48 1.84c1.51-2.51 2.34-5.14 2.34-7.98 0-8.67-8.52-12.11-17.77-9.77Zm42.08 28.65v.11l.17-.04-.17-.07Zm32.8-46.83-15.62 3.96v26.89l15.62-3.96c11.27-2.86 16.56-11.21 16.56-17.6s-5.13-12.18-16.56-9.29Zm0 0-15.62 3.96v26.89l15.62-3.96c11.27-2.86 16.56-11.21 16.56-17.6s-5.13-12.18-16.56-9.29Zm-32.8 46.94.17-.04-.17-.07v.11ZM179.64 159c-9.24 2.34-17.84 10.12-17.84 18.79s7.74 12.24 17.84 9.68c1.22-.31 2.48-.72 3.63-1.17l-14.39-5.89 21.71-5.5 4.48 1.84c1.51-2.51 2.34-5.14 2.34-7.98 0-8.67-8.52-12.11-17.77-9.77ZM309.32 24.94 50.68 90.46c-6.19 1.57-11.21 7.86-11.21 14.05v150.17c0 6.19 5.02 9.93 11.21 8.37l258.64-65.52c6.19-1.57 11.21-7.86 11.21-14.05V33.31c0-6.19-5.02-9.93-11.21-8.37ZM146.17 98.22l17.19-4.35v19.87l32.41-8.21V85.66l17.27-4.37v50.3l-17.27 4.38v-18.38l-32.41 8.21v18.38l-17.19 4.35V98.22Zm-39.38 87.59c12.67-1.79 31.47-5.52 31.47 8.2 0 11.19-16.5 19.87-32.57 23.94-12.16 3.08-27.3 4.78-34.27-5.04l15.31-7.74c2.46 3.16 10.28 2.99 15.73 1.85 5.78-1.15 15.39-3.98 16.07-7.54.59-3.7-6.21-2.92-12.59-2.02-12.67 1.79-34.52 6.7-34.52-6.71 0-11.43 21.34-21.49 34.44-24.81 12.16-3.08 29.25-4.25 32.4 5.52l-15.31 6.63c-1.11-3.5-8.42-2.91-13.86-1.93-5.19.92-18.03 4.88-18.37 8.52-.34 3.79 9.7 2.04 16.07 1.13Zm31.49-73.84-24.83 6.29v38.56l-17.19 4.35v-38.55l-24.84 6.29v-11.75l66.86-16.94v11.75Zm116.71 67.37-33.27 8.43-21.55 5.45-3.71-1.52c-5.02 3.4-10.8 5.99-16.82 7.51-17.84 4.52-33.47-1.45-33.47-17.46s15.63-29.98 33.47-34.5c17.77-4.5 33.4 1.48 33.4 17.56 0 6.07-2.22 11.84-5.95 16.89l14.63 5.95v-50.27c11.11-2.81 22.23-5.63 33.27-8.43 22.16-5.61 33.59 2.77 33.59 16.73s-11.51 28.07-33.59 33.66ZM288.58 73.9 238.9 86.48v7.41l44.95-11.38v12.06l-44.95 11.39v7.33l49.68-12.58v11.75l-66.86 16.93v-50.3l66.86-16.94V73.9Zm-34.06 66.92-15.62 3.96v26.89l15.62-3.96c11.27-2.86 16.56-11.21 16.56-17.6s-5.13-12.18-16.56-9.29Zm-32.8 46.83v.11l.17-.04-.17-.07ZM179.64 159c-9.24 2.34-17.84 10.12-17.84 18.79s7.74 12.24 17.84 9.68c1.22-.31 2.48-.72 3.63-1.17l-14.39-5.89 21.71-5.5 4.48 1.84c1.51-2.51 2.34-5.14 2.34-7.98 0-8.67-8.52-12.11-17.77-9.77Zm74.88-18.18-15.62 3.96v26.89l15.62-3.96c11.27-2.86 16.56-11.21 16.56-17.6s-5.13-12.18-16.56-9.29Zm0 0-15.62 3.96v26.89l15.62-3.96c11.27-2.86 16.56-11.21 16.56-17.6s-5.13-12.18-16.56-9.29Z" class="st0"/><path d="M221.72 187.65v.11l.17-.04-.17-.07Z" class="st0"/><path d="M221.72 187.65v.11l.17-.04-.17-.07Z" class="st0"/></svg>